# xmcd
#
# Track frame offsets:
#	150
#	20955
#	35975
#	51499
#	65036
#	84806
#	101392
#	119875
#	134118
#	149452
#	165637
#	181629
#	200048
#	211925
#	228105
#	243473
#	254606
#
# Disc length: 3617 seconds
#
# Revision: 8
# Processed by: cddbd v1.5.2PL0 Copyright (c) Steve Scherf et al.
# Submitted via: EZCDAudioConverter 8.2.2.1
#
DISCID=0a0e1f11
DTITLE=SOM LIVRE - PRA SEMPRE SERTANEJO - 2001 - VOL.1 [CD 0154-2) SOM LIVRE
DYEAR=2001
DGENRE=Country
TTITLE0=DANIEL - DECLARAÇÃO DE AMOR (BY GILMAR SINISTRO)
TTITLE1=CHRYSTIAN and RALF - SENSÍVEL DEMAIS (BY GILMAR SINISTRO)
TTITLE2=CHITÃOZINHO and CHORORÓ - PURA EMOÇÃO (ACHY BREAKY HEART) (BY GILMAR SIN
TTITLE2=ISTRO)
TTITLE3=GILBERTO and GILMAR - NÓIS NÃO VIVE SEM MUIÉ (BY GILMAR SINISTRO)
TTITLE4=RICK and RENNER - DIGA QUE AINDA ME AMA (BY GILMAR SINISTRO)
TTITLE5=GIAN and GIOVANI - CAÇADOR DE CORAÇÕES (BY GILMAR SINISTRO)
TTITLE6=ROLANDO BOLDRIM - VEDE, VIDA MARVADA (BY GILMAR SINISTRO)
TTITLE7=RIONEGRO and SOLIMÕES - DE SÃO PAULO A BELÉM (BY GILMAR SINISTRO)
TTITLE8=DONIZETTI - GALOPEIRA (GALOPERA) (BY GILMAR SINISTRO)
TTITLE9=JOÃO CARLOS and VIRIATO - NÓIS É CAUBÓI (NÓIS É XIKI NU ÚRTIMO) (BY GILM
TTITLE9=AR SINISTRO)
TTITLE10=JOÃO PAULO and DANIEL - A LOIRA DO CARRO BRANCO (BY GILMAR SINISTRO)
TTITLE11=ROBERTA MIRANDA - A RURAL II (A MISSÃO) (BY GILMAR SINISTRO)
TTITLE12=SÉRGIO REIS - FUI PRA CASA DA VIZINHA (BY GILMAR SINISTRO)
TTITLE13=RICK and RENNER - MULECA (BY GILMAR SINISTRO)
TTITLE14=JOÃO MINEIRO and MARCIANO - VIOLA ESTÁ CHORANDO (BY GILMAR SINISTRO)
TTITLE15=TEODORO and SAMPAIO - GARANHÃO DA MADRUGADA (BY GILMAR SINISTRO)
TTITLE16=ZEZÉ DI CAMARGO and LUCIANO - MEXE QUE É BOM (AO VIVO) (BY GILMAR SINIS
TTITLE16=TRO)
EXTD=
EXTT0=
EXTT1=
EXTT2=
EXTT3=
EXTT4=
EXTT5=
EXTT6=
EXTT7=
EXTT8=
EXTT9=
EXTT10=
EXTT11=
EXTT12=
EXTT13=
EXTT14=
EXTT15=
EXTT16=
PLAYORDER=
